<?xml version="1.0" standalone="no"?>
<!DOCTYPE svg PUBLIC "-//W3C//DTD SVG 20010904//EN"
 "http://www.w3.org/TR/2001/REC-SVG-20010904/DTD/svg10.dtd">
<svg version="1.0" xmlns="http://www.w3.org/2000/svg"
 width="512.000000pt" height="512.000000pt" viewBox="0 0 512.000000 512.000000"
 preserveAspectRatio="xMidYMid meet">
<metadata>
Created by potrace 1.16, written by Peter Selinger 2001-2019
</metadata>
<g transform="translate(0.000000,512.000000) scale(0.100000,-0.100000)"
fill="#ffffff" stroke="none">
<path d="M2315 4900 c-534 -60 -1010 -282 -1389 -650 -375 -364 -611 -820
-693 -1340 -25 -161 -25 -539 0 -698 107 -684 493 -1274 1077 -1646 102 -65
333 -177 455 -220 133 -47 304 -90 445 -112 162 -26 538 -26 700 -1 1028 162
1815 949 1977 1979 25 159 25 537 0 696 -78 496 -291 927 -636 1284 -359 373
-820 613 -1331 693 -123 19 -486 28 -605 15z m273 -846 c59 -15 110 -30 115
-34 5 -5 -62 -311 -88 -400 -4 -12 17 -20 101 -39 70 -15 109 -20 113 -13 3 6
28 98 54 205 l49 194 121 -30 c67 -16 123 -31 124 -32 1 0 -22 -95 -52 -210
-30 -115 -53 -210 -52 -211 1 -1 41 -17 88 -36 256 -102 400 -241 428 -416 17
-108 -16 -255 -77 -345 -54 -78 -103 -112 -231 -163 -22 -9 -20 -12 36 -46 69
-43 152 -128 181 -184 49 -98 53 -223 11 -359 -66 -219 -194 -350 -389 -402
-84 -22 -299 -22 -430 0 -53 9 -97 12 -100 7 -3 -5 -28 -99 -55 -209 -27 -111
-54 -201 -60 -201 -27 -1 -235 55 -235 63 0 5 23 99 51 209 28 110 49 201 47
203 -11 10 -203 54 -209 48 -4 -5 -30 -97 -57 -206 -28 -110 -52 -200 -54
-202 -2 -2 -58 10 -124 27 l-121 30 53 211 c29 116 52 213 51 214 -4 4 -218
59 -357 93 -74 18 -139 36 -144 41 -7 6 93 259 110 278 2 2 43 -6 92 -18 112
-28 168 -25 194 10 12 16 49 144 94 325 41 164 79 316 85 337 6 24 16 37 27
37 14 0 15 2 2 10 -13 8 -7 42 43 242 32 128 57 250 57 272 0 31 -7 46 -37 76
-33 32 -52 40 -151 65 -105 26 -113 29 -108 49 3 11 17 72 32 134 22 93 29
112 43 108 122 -37 495 -126 501 -119 4 4 29 96 55 203 48 196 52 210 61 210
2 0 53 -12 112 -26z"/>
<path d="M2477 3050 l-65 -260 51 -15 c29 -8 101 -25 162 -36 125 -24 274 -22
335 4 86 37 130 102 137 202 9 118 -66 209 -227 276 -65 27 -283 89 -316 89
-7 0 -40 -112 -77 -260z"/>
<path d="M2345 2518 c-2 -13 -34 -142 -70 -287 -36 -145 -64 -266 -61 -268 7
-8 145 -42 254 -63 125 -24 296 -27 369 -5 99 29 153 85 174 179 43 193 -109
328 -474 420 -203 52 -186 49 -192 24z"/>
</g>
</svg>
