<?xml version="1.0" standalone="no"?>
<!DOCTYPE svg PUBLIC "-//W3C//DTD SVG 20010904//EN"
 "http://www.w3.org/TR/2001/REC-SVG-20010904/DTD/svg10.dtd">
<svg version="1.0" xmlns="http://www.w3.org/2000/svg"
 width="512.000000pt" height="512.000000pt" viewBox="0 0 512.000000 512.000000"
 preserveAspectRatio="xMidYMid meet">
<metadata>
Created by potrace 1.16, written by Peter Selinger 2001-2019
</metadata>
<g transform="translate(0.000000,512.000000) scale(0.100000,-0.100000)"
fill="#ffffff" stroke="none">
<path d="M4070 4778 c-18 -20 -20 -35 -20 -170 l0 -148 -62 0 c-125 -1 -192
-33 -224 -107 -12 -27 -14 -205 -14 -1031 l0 -998 23 -44 c34 -68 80 -90 190
-90 l87 0 0 -149 c0 -131 2 -152 19 -172 26 -32 92 -33 123 -1 21 21 23 32 26
171 l3 149 94 4 c103 3 130 15 173 78 l22 33 0 1014 c0 1134 5 1060 -70 1109
-31 20 -55 26 -129 31 l-91 6 0 134 c0 176 -13 203 -95 203 -22 0 -41 -8 -55
-22z"/>
<path d="M1979 4251 c-23 -18 -24 -25 -27 -175 l-3 -156 -86 0 c-94 0 -140
-18 -178 -68 -20 -27 -20 -45 -23 -1056 l-2 -1030 24 -36 c35 -53 78 -70 179
-70 l86 0 3 -156 c3 -150 4 -157 27 -175 33 -27 86 -25 116 6 24 23 25 28 25
175 l0 150 94 0 c106 0 143 16 180 80 21 35 21 44 21 1050 0 1130 5 1050 -67
1102 -28 19 -48 24 -130 26 l-98 4 0 149 c0 146 -1 151 -25 174 -30 31 -83 33
-116 6z"/>
<path d="M3021 3684 c-19 -24 -21 -40 -21 -175 l0 -149 -94 0 c-106 0 -143
-16 -180 -80 -21 -35 -21 -44 -21 -1050 l0 -1015 24 -38 c35 -57 83 -77 186
-77 l85 0 0 -148 c0 -164 7 -185 61 -197 39 -9 83 10 98 41 6 15 11 82 11 164
l0 140 82 0 c92 0 149 21 183 68 20 27 20 45 23 1056 2 1024 2 1028 -18 1062
-36 58 -75 74 -179 74 l-91 0 0 150 c0 147 -1 152 -25 175 -35 36 -96 35 -124
-1z"/>
<path d="M933 3256 l-28 -24 -3 -150 -3 -150 -94 -4 c-103 -3 -130 -15 -173
-78 l-22 -33 2 -1026 3 -1026 23 -33 c34 -47 72 -63 173 -69 l89 -6 0 -134 c0
-175 13 -203 94 -203 21 0 40 8 54 23 21 22 22 33 22 170 l0 147 63 0 c124 1
191 33 223 107 12 27 14 205 14 1031 l0 998 -22 44 c-35 68 -81 90 -190 90
l-88 0 0 150 c0 147 -1 152 -25 175 -31 32 -75 32 -112 1z"/>
</g>
</svg>
