<?xml version="1.0" standalone="no"?>
<!DOCTYPE svg PUBLIC "-//W3C//DTD SVG 20010904//EN"
 "http://www.w3.org/TR/2001/REC-SVG-20010904/DTD/svg10.dtd">
<svg version="1.0" xmlns="http://www.w3.org/2000/svg"
 width="512.000000pt" height="512.000000pt" viewBox="0 0 512.000000 512.000000"
 preserveAspectRatio="xMidYMid meet">
<metadata>
Created by potrace 1.16, written by Peter Selinger 2001-2019
</metadata>
<g transform="translate(0.000000,512.000000) scale(0.100000,-0.100000)"
fill="#ffffff" stroke="none">
<path d="M3508 4756 c-111 -33 -172 -75 -307 -210 l-121 -121 496 -495 495
-495 116 120 c195 200 238 291 238 495 0 203 -42 288 -240 486 -154 154 -223
200 -346 229 -96 22 -238 19 -331 -9z"/>
<path d="M1854 3198 c-882 -883 -1004 -1009 -1023 -1055 -17 -43 -27 -114 -51
-370 -35 -375 -37 -452 -11 -509 39 -86 113 -143 206 -158 44 -7 672 47 744
64 112 27 99 15 1134 1048 543 543 987 991 987 997 0 10 -970 985 -980 985 -3
0 -456 -451 -1006 -1002z"/>
<path d="M355 576 c-38 -17 -60 -41 -80 -89 -21 -50 -19 -86 8 -137 16 -30 37
-51 67 -67 l43 -23 2167 0 2167 0 43 23 c50 26 90 90 90 141 0 42 -38 115 -73
140 l-28 21 -2187 2 c-1800 2 -2192 0 -2217 -11z"/>
</g>
</svg>
