<?xml version="1.0" standalone="no"?>
<!DOCTYPE svg PUBLIC "-//W3C//DTD SVG 20010904//EN"
 "http://www.w3.org/TR/2001/REC-SVG-20010904/DTD/svg10.dtd">
<svg version="1.0" xmlns="http://www.w3.org/2000/svg"
 width="512.000000pt" height="512.000000pt" viewBox="0 0 512.000000 512.000000"
 preserveAspectRatio="xMidYMid meet">
<metadata>
Created by potrace 1.16, written by Peter Selinger 2001-2019
</metadata>
<g transform="translate(0.000000,512.000000) scale(0.100000,-0.100000)"
fill="#ffffff" stroke="none">
<path d="M1346 5101 c-15 -10 -37 -32 -47 -47 -18 -28 -19 -81 -19 -1746 l0
-1717 -214 -3 c-238 -3 -244 -5 -293 -78 -23 -33 -23 -34 -23 -453 0 -413 0
-420 22 -458 39 -70 73 -79 306 -79 l202 0 0 -212 c0 -192 2 -216 19 -242 30
-46 70 -66 129 -66 64 0 105 21 135 70 20 33 22 50 25 243 l3 207 120 0 c176
0 166 -7 361 238 91 114 170 217 177 229 18 34 13 114 -8 148 -36 58 -326 409
-354 429 -25 18 -46 21 -163 24 l-134 4 -2 1711 -3 1712 -22 35 c-12 19 -35
43 -51 53 -41 24 -128 23 -166 -2z m471 -3934 l90 -113 -89 -112 -90 -112
-334 0 -334 0 0 225 0 225 333 0 333 0 91 -113z"/>
<path d="M3679 4947 c-93 -62 -91 -191 4 -261 27 -20 40 -21 307 -21 267 0
280 1 307 21 97 72 98 205 1 264 -31 19 -51 20 -309 20 -270 0 -277 0 -310
-23z"/>
<path d="M3240 4202 c-108 -54 -108 -216 0 -273 32 -18 67 -19 525 -19 489 0
490 0 529 23 104 59 101 217 -4 269 -32 16 -78 18 -525 18 -447 0 -493 -2
-525 -18z"/>
<path d="M3694 3450 c-103 -51 -112 -202 -15 -267 33 -23 40 -23 310 -23 258
0 278 1 309 20 45 28 72 76 72 130 0 62 -28 110 -80 137 -42 22 -52 23 -299
23 -237 0 -259 -2 -297 -20z"/>
<path d="M3272 2710 c-18 -4 -45 -18 -59 -31 -79 -74 -70 -186 20 -253 28 -21
37 -21 532 -21 495 0 504 0 532 21 98 73 98 195 0 268 -28 21 -38 21 -510 23
-265 1 -497 -2 -515 -7z"/>
<path d="M3679 1937 c-97 -65 -88 -217 16 -267 38 -18 62 -20 297 -20 246 0
256 1 298 23 104 55 108 206 8 267 -31 19 -51 20 -309 20 -270 0 -277 0 -310
-23z"/>
<path d="M3240 1191 c-108 -57 -108 -219 0 -273 32 -16 78 -18 525 -18 447 0
493 2 525 18 105 52 108 210 4 269 -39 23 -40 23 -529 23 -458 0 -493 -1 -525
-19z"/>
<path d="M3716 450 c-120 -37 -143 -207 -37 -277 33 -23 40 -23 310 -23 258 0
278 1 309 20 97 59 96 192 -1 264 -27 20 -42 21 -290 23 -144 1 -275 -2 -291
-7z"/>
</g>
</svg>
