<?xml version="1.0" standalone="no"?>
<!DOCTYPE svg PUBLIC "-//W3C//DTD SVG 20010904//EN"
 "http://www.w3.org/TR/2001/REC-SVG-20010904/DTD/svg10.dtd">
<svg version="1.0" xmlns="http://www.w3.org/2000/svg"
 width="512.000000pt" height="512.000000pt" viewBox="0 0 512.000000 512.000000"
 preserveAspectRatio="xMidYMid meet">
<metadata>
Created by potrace 1.16, written by Peter Selinger 2001-2019
</metadata>
<g transform="translate(0.000000,512.000000) scale(0.100000,-0.100000)"
fill="#FFFFFF" stroke="none">
<path d="M1483 3722 l-1073 -537 0 -620 0 -620 308 -154 307 -153 453 226
c248 124 454 226 457 226 3 0 5 -205 5 -455 l0 -455 312 -156 313 -156 1077
538 1078 539 0 80 0 80 -310 310 -310 310 -455 -228 c-250 -125 -457 -227
-460 -227 -3 0 -5 309 -5 688 l0 687 -308 308 c-169 169 -309 307 -312 306 -3
0 -488 -242 -1077 -537z m1229 71 l148 -148 0 -927 c0 -511 2 -928 5 -928 3 0
282 138 620 307 l615 308 147 -147 c81 -81 145 -149 143 -152 -3 -2 -415 -209
-916 -459 l-911 -455 -151 151 -152 152 0 923 c0 508 -3 922 -7 920 -5 -2
-281 -140 -615 -308 l-608 -305 -150 150 -150 150 912 457 c502 251 915 457
918 457 3 1 71 -65 152 -146z"/>
</g>
</svg>
