<?xml version="1.0" standalone="no"?>
<!DOCTYPE svg PUBLIC "-//W3C//DTD SVG 20010904//EN"
 "http://www.w3.org/TR/2001/REC-SVG-20010904/DTD/svg10.dtd">
<svg version="1.0" xmlns="http://www.w3.org/2000/svg"
 width="512.000000pt" height="512.000000pt" viewBox="0 0 512.000000 512.000000"
 preserveAspectRatio="xMidYMid meet">
<metadata>
Created by potrace 1.16, written by Peter Selinger 2001-2019
</metadata>
<g transform="translate(0.000000,512.000000) scale(0.100000,-0.100000)"
fill="#ffffff" stroke="none">
<path d="M1118 4216 c-510 -198 -928 -363 -928 -366 0 -6 650 -260 665 -260 6
0 434 165 953 367 623 242 939 369 929 374 -53 30 -638 249 -662 248 -16 -1
-447 -164 -957 -363z"/>
<path d="M2468 3703 c-516 -201 -938 -369 -938 -372 0 -4 124 -55 275 -114
l276 -107 944 368 c520 202 945 369 945 372 0 5 -551 221 -560 219 -3 0 -427
-165 -942 -366z"/>
<path d="M80 2630 l0 -1099 23 -25 c16 -19 251 -115 957 -389 514 -200 938
-361 943 -357 4 3 6 505 5 1114 l-3 1107 -294 115 c-161 63 -295 114 -297 114
-2 0 -4 -110 -4 -244 0 -141 -4 -247 -9 -251 -8 -4 -198 148 -309 248 l-22 20
-151 -47 c-85 -27 -155 -44 -160 -39 -5 5 -10 136 -11 292 l-3 282 -270 106
c-148 57 -298 115 -332 128 l-63 24 0 -1099z"/>
<path d="M3120 3357 l-955 -372 -3 -1117 -2 -1117 87 35 c49 19 246 95 439
170 l351 136 -23 75 c-87 273 -66 559 60 818 174 355 500 583 896 626 l110 12
0 554 c0 304 -1 553 -2 552 -2 0 -433 -168 -958 -372z"/>
<path d="M3940 2459 c-236 -30 -468 -164 -622 -358 -296 -372 -270 -917 59
-1262 125 -130 257 -211 438 -265 82 -25 105 -28 255 -28 144 -1 176 2 250 23
593 165 887 809 620 1357 -184 378 -577 588 -1000 533z m668 -506 c31 -19 62
-72 62 -106 0 -16 -7 -43 -15 -61 -20 -42 -712 -732 -748 -745 -37 -14 -70
-14 -104 2 -31 14 -338 394 -360 447 -20 46 -4 98 42 139 40 35 96 42 143 17
15 -8 74 -73 131 -145 57 -72 107 -131 110 -131 3 0 134 129 291 286 183 183
299 293 325 305 43 20 83 18 123 -8z"/>
</g>
</svg>
