<?xml version="1.0" standalone="no"?>
<!DOCTYPE svg PUBLIC "-//W3C//DTD SVG 20010904//EN"
 "http://www.w3.org/TR/2001/REC-SVG-20010904/DTD/svg10.dtd">
<svg version="1.0" xmlns="http://www.w3.org/2000/svg"
 width="512.000000pt" height="512.000000pt" viewBox="0 0 512.000000 512.000000"
 preserveAspectRatio="xMidYMid meet">
<metadata>
Created by potrace 1.16, written by Peter Selinger 2001-2019
</metadata>
<g transform="translate(0.000000,512.000000) scale(0.100000,-0.100000)"
fill="#FFFFFF" stroke="none">
<path d="M1030 4446 c-444 -258 -505 -296 -505 -317 0 -20 29 -40 204 -142
l204 -118 201 116 c648 372 851 493 853 505 3 18 -399 250 -430 249 -12 0
-249 -132 -527 -293z"/>
<path d="M3085 4371 c-258 -149 -258 -159 -20 -298 88 -51 172 -97 186 -103
53 -23 109 27 95 85 -4 16 -24 37 -54 56 l-47 31 135 -5 c150 -5 231 -26 338
-89 73 -42 208 -177 250 -250 81 -137 102 -258 102 -590 0 -202 0 -207 22
-222 32 -23 65 -20 94 9 l26 26 -5 287 c-3 257 -6 295 -25 359 -62 206 -177
366 -346 477 -148 98 -264 134 -466 145 l-125 6 42 23 c46 24 63 47 63 85 0
30 -39 67 -71 67 -13 0 -100 -45 -194 -99z"/>
<path d="M1650 4081 c-283 -164 -516 -304 -518 -312 -3 -18 398 -249 430 -248
13 0 250 132 528 292 439 255 505 296 505 316 0 20 -30 41 -195 137 -107 62
-204 113 -215 113 -11 0 -252 -135 -535 -298z"/>
<path d="M425 3968 c-3 -13 -4 -286 -3 -607 l3 -584 508 -294 c280 -161 519
-293 532 -293 12 0 26 7 29 16 9 23 7 1177 -2 1190 -7 11 -394 238 -427 250
-13 5 -15 -22 -15 -222 0 -125 -4 -224 -8 -218 -5 5 -22 39 -37 77 -18 42 -34
67 -44 67 -8 0 -32 -17 -53 -37 l-38 -37 0 244 -1 245 -197 113 c-109 61 -208
112 -220 112 -14 0 -23 -8 -27 -22z"/>
<path d="M2140 3699 c-278 -161 -508 -297 -512 -303 -9 -13 -11 -1167 -2
-1190 3 -9 17 -16 29 -16 25 0 1023 571 1037 593 9 14 11 1168 2 1191 -3 9
-16 16 -28 16 -12 0 -249 -131 -526 -291z"/>
<path d="M3030 2637 c-438 -254 -505 -296 -505 -316 0 -23 46 -53 355 -228
l56 -32 524 303 c289 167 526 309 528 317 3 18 -398 249 -430 248 -13 0 -250
-132 -528 -292z"/>
<path d="M3660 2277 c-289 -167 -526 -309 -527 -317 -3 -16 383 -243 422 -248
14 -2 208 105 531 291 448 259 509 297 509 318 0 20 -29 40 -204 141 -111 65
-204 118 -205 118 0 0 -237 -137 -526 -303z"/>
<path d="M843 2194 l-25 -25 5 -277 c4 -242 7 -287 26 -356 64 -240 226 -439
444 -546 108 -53 220 -80 370 -88 l122 -7 -43 -23 c-40 -21 -62 -53 -62 -88 0
-23 46 -64 71 -64 29 0 356 187 375 214 19 27 18 59 -3 84 -23 27 -344 212
-367 212 -47 0 -81 -44 -71 -91 5 -21 20 -39 53 -59 l47 -30 -106 0 c-284 0
-516 143 -640 396 -60 124 -69 180 -69 472 l0 253 -25 24 c-31 32 -69 32 -102
-1z"/>
<path d="M2426 2164 c-9 -23 -7 -1177 2 -1190 13 -21 1016 -594 1038 -594 12
0 25 7 28 16 9 23 7 1177 -2 1191 -9 14 -418 253 -432 253 -6 0 -11 -102 -12
-239 l-3 -238 -87 49 -88 50 0 247 0 246 -196 113 c-193 110 -236 127 -248 96z"/>
<path d="M4145 1894 c-269 -156 -498 -291 -507 -299 -17 -14 -18 -55 -18 -599
0 -321 3 -591 6 -600 3 -9 16 -16 28 -16 23 0 1025 573 1038 594 9 13 11 1167
2 1190 -4 9 -17 16 -33 15 -15 0 -233 -121 -516 -285z"/>
</g>
</svg>
