<?xml version="1.0" standalone="no"?>
<!DOCTYPE svg PUBLIC "-//W3C//DTD SVG 20010904//EN"
 "http://www.w3.org/TR/2001/REC-SVG-20010904/DTD/svg10.dtd">
<svg version="1.0" xmlns="http://www.w3.org/2000/svg"
 width="512.000000pt" height="512.000000pt" viewBox="0 0 512.000000 512.000000"
 preserveAspectRatio="xMidYMid meet">
<metadata>
Created by potrace 1.16, written by Peter Selinger 2001-2019
</metadata>
<g transform="translate(0.000000,512.000000) scale(0.100000,-0.100000)"
fill="#ffffff" stroke="none">
<path d="M2215 4684 c-38 -7 -108 -32 -155 -55 -114 -56 -230 -170 -284 -279
l-37 -75 -589 -5 -588 -5 -44 -30 c-136 -97 -124 -301 23 -376 37 -18 64 -19
617 -19 l579 0 42 -85 c72 -146 214 -266 371 -316 94 -30 238 -36 334 -15 186
42 353 170 431 333 l40 82 793 1 c769 0 794 1 831 20 146 74 158 279 23 375
l-44 30 -801 3 -802 2 -33 68 c-68 141 -191 256 -333 312 -130 50 -242 60
-374 34z"/>
<path d="M3250 3185 c-168 -46 -328 -175 -406 -327 l-39 -78 -1115 -2 -1115
-3 -47 -28 c-69 -40 -103 -102 -103 -187 0 -85 34 -147 103 -187 l47 -28 1115
-3 1115 -2 39 -78 c80 -157 242 -284 415 -328 98 -25 274 -16 369 18 163 58
307 191 372 342 l19 45 263 3 c286 3 292 4 352 64 46 46 60 83 61 154 0 85
-34 147 -103 187 l-47 28 -263 3 -263 3 -19 45 c-66 152 -208 283 -372 342
-61 22 -93 26 -198 29 -87 2 -142 -2 -180 -12z"/>
<path d="M1810 1704 c-59 -11 -159 -48 -210 -77 -87 -48 -208 -177 -254 -269
l-38 -78 -364 0 c-341 0 -367 -1 -403 -19 -147 -75 -159 -279 -23 -376 l44
-30 376 -3 377 -4 39 -81 c56 -116 160 -219 277 -275 109 -52 173 -66 289 -66
116 0 180 14 289 66 117 56 221 159 277 275 l39 82 1017 3 1016 3 44 30 c136
97 124 301 -23 376 -37 18 -68 19 -1043 19 l-1004 0 -38 78 c-29 57 -59 98
-119 158 -132 133 -246 183 -430 189 -60 2 -121 1 -135 -1z"/>
</g>
</svg>
