<?xml version="1.0" standalone="no"?>
<!DOCTYPE svg PUBLIC "-//W3C//DTD SVG 20010904//EN"
 "http://www.w3.org/TR/2001/REC-SVG-20010904/DTD/svg10.dtd">
<svg version="1.0" xmlns="http://www.w3.org/2000/svg"
 width="512.000000pt" height="512.000000pt" viewBox="0 0 512.000000 512.000000"
 preserveAspectRatio="xMidYMid meet">
<metadata>
Created by potrace 1.16, written by Peter Selinger 2001-2019
</metadata>
<g transform="translate(0.000000,512.000000) scale(0.100000,-0.100000)"
fill="#ffffff" stroke="none">
<path d="M822 4424 c-127 -63 -403 -424 -542 -709 -181 -371 -260 -712 -260
-1128 0 -429 81 -782 270 -1172 142 -293 422 -664 545 -721 98 -46 207 -23
291 60 58 59 74 99 74 186 0 73 -27 128 -98 204 -472 505 -665 1171 -530 1831
30 147 100 354 168 490 92 187 177 308 373 532 69 78 87 121 87 204 0 98 -66
196 -157 234 -58 25 -160 20 -221 -11z"/>
<path d="M4082 4424 c-64 -32 -108 -83 -127 -148 -33 -111 -11 -185 87 -293
277 -303 440 -609 522 -975 36 -163 46 -261 46 -450 1 -526 -187 -999 -554
-1396 -113 -123 -136 -192 -101 -308 19 -63 69 -122 131 -154 40 -21 63 -25
130 -25 96 0 120 13 200 109 287 341 522 814 618 1248 54 242 60 304 61 608 0
254 -3 299 -23 413 -90 499 -305 930 -635 1274 -95 99 -141 123 -235 123 -53
0 -79 -6 -120 -26z"/>
<path d="M1577 3716 c-51 -19 -95 -54 -160 -128 -416 -476 -505 -1152 -224
-1713 99 -200 265 -406 362 -451 100 -47 211 -28 292 51 80 78 102 186 58 291
-7 16 -40 61 -74 100 -282 315 -353 711 -197 1093 37 91 102 192 190 295 102
119 123 185 91 292 -18 61 -73 127 -129 156 -52 27 -156 34 -209 14z"/>
<path d="M3385 3714 c-101 -36 -165 -131 -165 -243 1 -85 21 -130 98 -214 190
-210 282 -463 269 -737 -13 -250 -100 -461 -267 -644 -79 -87 -99 -132 -100
-217 0 -149 110 -259 261 -259 92 0 149 33 248 146 189 213 312 474 362 765
18 106 21 149 16 299 -8 250 -47 416 -147 625 -99 206 -272 423 -375 471 -58
28 -137 31 -200 8z"/>
<path d="M2461 3069 c-66 -13 -179 -70 -233 -118 -111 -99 -168 -230 -168
-385 0 -144 38 -247 127 -346 102 -113 230 -170 385 -170 303 0 535 246 515
545 -23 320 -309 536 -626 474z"/>
</g>
</svg>
