<?xml version="1.0" standalone="no"?>
<!DOCTYPE svg PUBLIC "-//W3C//DTD SVG 20010904//EN"
 "http://www.w3.org/TR/2001/REC-SVG-20010904/DTD/svg10.dtd">
<svg version="1.0" xmlns="http://www.w3.org/2000/svg"
 width="512.000000pt" height="512.000000pt" viewBox="0 0 512.000000 512.000000"
 preserveAspectRatio="xMidYMid meet">
<metadata>
Created by potrace 1.16, written by Peter Selinger 2001-2019
</metadata>
<g transform="translate(0.000000,512.000000) scale(0.100000,-0.100000)"
fill="#ffffff" stroke="none">
<path d="M3752 4300 c-18 -11 -41 -34 -52 -52 -19 -31 -20 -51 -20 -300 l0
-268 -747 0 c-729 0 -749 -1 -781 -20 -18 -11 -41 -34 -52 -52 -19 -31 -20
-51 -20 -408 0 -357 1 -377 20 -408 11 -18 34 -41 52 -52 32 -19 52 -20 781
-20 l747 0 0 -267 c0 -250 1 -270 20 -301 29 -48 75 -72 138 -72 29 0 63 5 75
11 31 16 1015 998 1033 1031 8 15 14 50 14 78 0 28 -6 63 -14 78 -18 33 -1002
1015 -1033 1031 -36 18 -124 13 -161 -9z"/>
<path d="M1205 3029 c-31 -17 -1015 -1001 -1031 -1031 -18 -35 -18 -121 0
-156 18 -33 1002 -1015 1033 -1031 12 -6 46 -11 75 -11 63 0 109 24 138 72 19
31 20 51 20 301 l0 267 748 0 c728 0 748 1 780 20 18 11 41 34 52 52 19 31 20
51 20 408 0 357 -1 377 -20 408 -11 18 -34 41 -52 52 -32 19 -52 20 -780 20
l-748 0 0 268 c0 249 -1 269 -20 300 -30 49 -75 72 -140 72 -30 0 -64 -5 -75
-11z"/>
</g>
</svg>
